<?xml version="1.0" encoding="utf-8"?>
<!-- Generator: Adobe Illustrator 24.3.0, SVG Export Plug-In . SVG Version: 6.00 Build 0)  -->
<svg version="1.1" id="Layer_1" xmlns="http://www.w3.org/2000/svg" xmlns:xlink="http://www.w3.org/1999/xlink" x="0px" y="0px"
	 viewBox="0 0 100 100" style="enable-background:new 0 0 100 100;" xml:space="preserve">
<style type="text/css">
	.st0{opacity:0.5;fill:#E6E6E6;enable-background:new    ;}
	.st1{fill:none;stroke:url(#SVGID_1_);stroke-width:2;stroke-linecap:round;stroke-miterlimit:10;}
	.st2{fill:url(#SVGID_2_);}
	.st3{fill:url(#SVGID_3_);}
	.st4{fill:url(#SVGID_4_);}
	.st5{fill:url(#SVGID_5_);}
	.st6{fill:#E8EBEE;}
</style>
<circle class="st0" cx="50.1" cy="49.8" r="25.1"/>
<linearGradient id="SVGID_1_" gradientUnits="userSpaceOnUse" x1="22.2" y1="52.2" x2="78" y2="52.2" gradientTransform="matrix(1 0 0 -1 0 102)">
	<stop  offset="0" style="stop-color:#1BE2ED"/>
	<stop  offset="0.1759" style="stop-color:#18D9EE"/>
	<stop  offset="0.4674" style="stop-color:#12BFF1"/>
	<stop  offset="0.5674" style="stop-color:#0FB5F2"/>
	<stop  offset="0.8652" style="stop-color:#099FF4"/>
	<stop  offset="0.9944" style="stop-color:#099FF4"/>
</linearGradient>
<circle class="st1" cx="50.1" cy="49.8" r="26.9">
<animateTransform  accumulate="none" additive="replace" attributeName="transform" attributeType="XML" calcMode="linear" dur="1s" fill="remove" from="0 50 50" repeatCount="indefinite" restart="always" to="360 50 50" type="rotate">
	</animateTransform>
</circle>
<g>
	
		<linearGradient id="SVGID_2_" gradientUnits="userSpaceOnUse" x1="32.7192" y1="150.3" x2="45.0377" y2="150.3" gradientTransform="matrix(1 0 0 1 0 -98)">
		<stop  offset="0" style="stop-color:#1BE2ED"/>
		<stop  offset="0.1759" style="stop-color:#18D9EE"/>
		<stop  offset="0.4674" style="stop-color:#12BFF1"/>
		<stop  offset="0.5674" style="stop-color:#0FB5F2"/>
		<stop  offset="0.8652" style="stop-color:#099FF4"/>
		<stop  offset="0.9944" style="stop-color:#099FF4"/>
	</linearGradient>
	<path class="st2" d="M44.3,58.8L44.3,58.8c-1.2,0.5-2.7,0.9-4.4,0.9c-0.7,0-1.5-0.1-2.4-0.3c0.8-1.6,1.4-4.1,1.9-7.3l0.7-4.4
		c0.2-1.5,0.5-2.8,0.9-4c-1.5,0.4-2.9,0.6-4,0.7L36.8,45c0.2,0,0.4,0,0.4,0c0.2,0,0.3,0.1,0.5,0.2c0.1,0.1,0.2,0.2,0.2,0.4
		s0,0.4,0,0.7l-0.8,5.2l-0.7,4.2c-0.4,1.6-0.7,2.7-1,3.2c-0.1,0.3-0.3,0.5-0.6,0.6c-0.2,0.1-0.8,0.2-1.8,0.3l-0.3,0.8
		c1,0,1.7,0,2.2,0c1,0,2.1,0,3.3,0.1c1.4,0.1,2.3,0.2,2.9,0.2c1.4,0,2.7-0.2,4-0.7C44.6,59.5,44.4,59.2,44.3,58.8z"/>
	
		<linearGradient id="SVGID_3_" gradientUnits="userSpaceOnUse" x1="29.3535" y1="147.95" x2="51.3933" y2="147.95" gradientTransform="matrix(1 0 0 1 0 -98)">
		<stop  offset="0" style="stop-color:#1BE2ED"/>
		<stop  offset="0.1759" style="stop-color:#18D9EE"/>
		<stop  offset="0.4674" style="stop-color:#12BFF1"/>
		<stop  offset="0.5674" style="stop-color:#0FB5F2"/>
		<stop  offset="0.8652" style="stop-color:#099FF4"/>
		<stop  offset="0.9944" style="stop-color:#099FF4"/>
	</linearGradient>
	<path class="st3" d="M50.1,55.5c-0.8,1.5-1.9,2.6-3.1,3.4c-0.1-0.1-0.1-0.1-0.2-0.2c-0.4-0.4-0.7-0.7-1-0.8c-0.1,0-0.1,0-0.2,0
		c0.9-0.7,1.6-1.7,2.1-2.8c0.7-1.5,0.9-3.1,0.8-5c-0.1-0.7-0.2-1.4-0.4-2.1c-0.4-1.4-1.1-2.6-2.1-3.6l-0.1-0.1
		c-1.5-1.4-3.4-2.2-5.6-2.2c-1.9,0-3.6,0.4-5.2,1.3c-1.6,0.9-2.8,2.1-3.6,3.5c-0.8,1.5-1.2,2.9-1.1,4.3c0.1,1.4,0.8,2.4,2,3
		c0.4,0.2,0.6,0.4,0.7,0.5c0.1,0.1,0.2,0.3,0.2,0.5c0,0.3-0.1,0.5-0.2,0.7c-0.2,0.2-0.4,0.3-0.7,0.3c-0.6,0-1.1-0.4-1.7-1.1
		c-0.8-1-1.3-2.1-1.4-3.2c-0.2-1.8,0.2-3.6,1.2-5.3c0.9-1.7,2.3-3.1,4.2-4.1s4-1.5,6.3-1.5c2.4,0,4.4,0.5,6.1,1.6
		c0.3,0.2,0.6,0.4,0.9,0.6c0.1,0.1,0.2,0.1,0.2,0.2c1.9,1.6,2.9,3.5,3.1,5.9C51.5,51.6,51.1,53.6,50.1,55.5z"/>
	
		<linearGradient id="SVGID_4_" gradientUnits="userSpaceOnUse" x1="45.5331" y1="144.5" x2="47.8646" y2="144.5" gradientTransform="matrix(1 0 0 1 0 -98)">
		<stop  offset="0" style="stop-color:#1BE2ED"/>
		<stop  offset="0.1759" style="stop-color:#18D9EE"/>
		<stop  offset="0.4674" style="stop-color:#12BFF1"/>
		<stop  offset="0.5674" style="stop-color:#0FB5F2"/>
		<stop  offset="0.8652" style="stop-color:#099FF4"/>
		<stop  offset="0.9944" style="stop-color:#099FF4"/>
	</linearGradient>
	<path class="st4" d="M45.8,44.5c-0.2,0.6-0.3,1.2-0.2,1.9s0.2,1.2,0.5,1.6c0.3,0.4,0.6,0.5,1,0.5c0.3,0,0.5-0.1,0.7-0.3l0.1-0.1
		C47.5,46.6,46.8,45.5,45.8,44.5z"/>
	
		<linearGradient id="SVGID_5_" gradientUnits="userSpaceOnUse" x1="44.5633" y1="147.8" x2="71.1355" y2="147.8" gradientTransform="matrix(1 0 0 1 0 -98)">
		<stop  offset="0" style="stop-color:#1BE2ED"/>
		<stop  offset="0.1759" style="stop-color:#18D9EE"/>
		<stop  offset="0.4674" style="stop-color:#12BFF1"/>
		<stop  offset="0.5674" style="stop-color:#0FB5F2"/>
		<stop  offset="0.8652" style="stop-color:#099FF4"/>
		<stop  offset="0.9944" style="stop-color:#099FF4"/>
	</linearGradient>
	<path class="st5" d="M71.1,40.5c0,0.3-0.1,0.5-0.2,0.7c-0.2,0.2-0.4,0.3-0.7,0.3c-0.4,0-0.8-0.3-1.3-0.8s-1-0.8-1.3-0.8
		c-0.8,0-1.5,0.7-2.2,2.2c-1.1,2.6-2.3,8.2-3.3,16.7c0.2,0,0.4,0.1,0.8,0.1c0.6,0.1,1.1,0.2,1.5,0.2s0.9-0.1,1.5-0.2l-0.1,0.9
		c-0.5,0.1-0.9,0.1-1.2,0.1c-0.5,0-1.1,0-1.8-0.1c-0.8-0.1-1.5-0.1-2.1-0.1c-0.5,0-0.9,0.1-1.4,0.2c0.3-1.2,0.7-2.9,1-5.1L61,50
		l-4.3,0.2c-0.7,0-1.5,0.1-2.3,0.2c-0.5,2.8-1,4.9-1.7,6.3c-0.6,1.4-1.4,2.4-2.4,3c-0.9,0.6-1.8,1-2.7,1s-1.6-0.2-2.3-0.6
		c0,0-0.1,0-0.1-0.1c-0.4-0.3-0.7-0.6-0.7-1.1v-0.1c0-0.2,0.1-0.4,0.2-0.6c0.2-0.2,0.4-0.3,0.6-0.3c0.1,0,0.1,0,0.2,0
		c0.1,0,0.1,0,0.2,0c0.3,0.1,0.7,0.4,1,0.8c0.1,0.1,0.1,0.1,0.2,0.2C47,59,47,59,47,59c0.2,0.2,0.3,0.3,0.4,0.4
		c0.2,0.1,0.4,0.2,0.6,0.2c0.8,0,1.5-0.7,2.1-2s1.4-4.6,2.3-9.9l1-5.8c-2.1,0-3.7,0.3-4.7,1c-0.2,0.2-0.4,0.3-0.6,0.5
		c-0.3-0.2-0.6-0.4-0.9-0.6c0.8-0.8,1.9-1.3,3.4-1.7c1-0.2,2.9-0.3,5.8-0.3c-0.6,1.6-1.3,4.3-1.9,8.2c2.8,0,5-0.1,6.6-0.3
		c0.7-3.1,1.3-5.2,1.9-6.4c0.6-1.2,1.3-2.1,2.1-2.6s1.8-0.8,2.9-0.8c0.9,0,1.7,0.2,2.2,0.5C70.8,39.7,71.1,40.1,71.1,40.5z"/>
</g>
<g>
	<path class="st6" d="M12.9,65.4c0-0.2,0-0.5-0.1-0.7c-0.5-1-0.9-2-1.4-3c-0.1-0.2-0.1-0.3-0.1-0.6c-0.7,0-1.4,0-2.1,0
		c-1.2,0.1-2.4-0.3-3.5-0.8C4.9,60,4.5,59.5,3.9,59C3,58.2,2.4,57.3,2,56.3c-0.1-0.2-0.1-0.4-0.2-0.6c-0.1-0.2-0.2-0.3-0.3-0.4
		c1.1-0.4,2.1-0.6,3.2-0.4c1,0.2,2,0.3,3,0.8s1.6,1.3,2.5,2c-0.3-1.8-0.6-3.5-0.8-5.3c-1.3,0-2.5-0.4-3.7-1
		c-1.6-0.8-2.7-2.1-3.3-3.8c-0.2-0.7-0.5-1.3-0.5-2.1c0-0.3-0.2-0.6-0.2-1.1c1.6,0.2,3.1,0.4,4.5,1.2c1.3,0.7,2.1,1.4,3.2,3.6
		c0.1-1.9,0.2-3.6,0.6-5.3c-0.4-0.2-0.8-0.5-1.2-0.7c-1.3-0.4-2.2-1.4-3.1-2.4c-0.5-0.6-0.8-1.5-1.1-2.3c-0.4-1.3-0.2-2.6-0.3-3.8
		c0.1-0.3,0.2-0.5,0.3-0.7c1.9,0.5,3.4,1.5,4.6,3c0.8,1,1.3,2.1,1.4,3.5c0.7-1.6,1.2-3.3,2.2-5c-0.2-0.1-0.4-0.2-0.6-0.4
		c-1.2-0.9-2.1-2-2.8-3.3C9.2,31.4,9,30.9,9,30.4c0-0.3-0.2-0.5-0.2-0.8c0.1-1.7,0.3-3.4,1.1-5c1.9,1.2,3.3,2.7,4.1,4.8
		c0.2,0.9,0.4,1.8,0.3,3.1c1.1-1.6,2.1-2.9,3.2-4.3c-1.1-1.3-1.9-2.7-2.1-4.3c-0.2-1.2-0.1-2.5,0.4-3.6c0.4-1.1,1-2.2,2-3.1
		c0.5,0.3,0.8,0.7,1.1,1.2c1,1.6,1.8,3.4,1.6,5.4c0,0.4-0.2,0.9-0.3,1.3c0,0.2,0,0.4-0.1,0.6c0.9-0.4,1.5-1.3,2.3-1.8
		c0.5-0.3,1-0.7,1.6-1.1c0-0.3,0-0.6-0.2-0.9c-0.5-1.1-0.8-3.4-0.5-4.6c0.1-0.6,0.4-1.3,0.7-1.9c0.6-1.3,1.8-2.1,2.6-3.1
		c0.1-0.2,0.4-0.3,0.6-0.4c1.5,2.9,1.9,5.8,0,8.6c0.1,0.1,0.1,0.1,0.1,0.1h0.1c1.6-0.8,3.2-1.5,4.9-2.1c1-1.7,2.1-3.3,4-4.1
		c0.8-0.3,1.5-0.6,2.4-0.6c0.7,0,1.3-0.1,2,0c0.6,0.1,1.2,0.2,1.8,0.4c-0.2,0.8-0.6,1.6-1.1,2.2c-1,1.2-2.1,2.4-3.8,2.9
		c-1.2,0.3-2.5,0.5-3.6,0.2c-0.6-0.1-1.3-0.1-1.9,0.2c-1.3,0.5-2.5,1.1-4,1.7c3.3,0.1,5.8,1.4,7.4,4.2c-0.7,0.3-1.4,0.6-2.1,0.8
		c-0.5,0.2-0.9,0.3-1.4,0.3c-0.4,0-0.8,0-1.2,0c-1.8,0.2-3.3-0.7-4.6-1.8c-0.5-0.4-0.9-0.9-1.4-1.4c-1.1,0.8-2.1,1.6-3.1,2.4V26v0.1
		c2.9-0.7,5.5,0,7.7,2c-0.7,1.5-3.6,2.6-5.1,2.8c-2,0.2-3.9-0.5-5.6-1.9c-0.9,0.7-1.3,1.9-2.2,2.6c0,0.2,0,0.3,0,0.5
		c0.1,0,0.2,0.1,0.2,0.1c0.7-0.4,1.4-0.7,2.2-0.7c0.9-0.5,1.8,0,2.8,0c0.7,0,1.4,0.4,2.1,0.6c0.2,0.1,0.3,0.4,0.4,0.6
		c-0.5,0.6-1,1.2-1.5,1.8c-1.1,1.2-2.5,1.8-4,2.3c-0.8-0.1-1.6,0.3-2.3-0.2c-0.9,0.2-1.7-0.6-2.7-0.4c-0.3,1.2-1.1,2.3-1.3,3.8
		c0.8-0.7,1.5-1.3,2.4-1.7c0.8-0.3,1.6-0.6,2.5-0.7c0.9,0,1.8,0,2.7,0c0.4,0.3,0.4,0.7,0.2,1.1c-0.6,1.2-1.2,2.4-2.2,3.4
		c-0.9,0.8-1.9,1.4-3,1.7c-0.8,0.2-1.7,0.2-2.5,0.3c-0.4,0-0.7-0.1-1.2-0.2c-0.2,1.5-0.6,2.9-0.4,4.4c0.8-1.4,1.8-2.4,3-3.2
		s2.7-0.9,4.1-1.2c0,2.2-0.5,4-1.8,5.6c-1.4,1.6-3.2,2.4-5.3,2.7c0,0.5,0,1.1,0,1.6s0.2,1,0.2,1.4c0,0.5,0.3,1,0.4,1.5
		c0.3-2,1.4-3.5,2.9-4.7c0.9-0.7,1.9-1,2.8-1.6c0.3,1.1,0.6,2.8,0.4,3.5c-0.2,1-0.4,1.9-0.8,2.8c-0.2,0.3-0.4,0.6-0.7,0.9
		c-1,1.1-2,2.1-3.4,2.6c-0.1,0-0.2,0.2-0.3,0.3c0.6,1.3,1.1,2.6,1.8,4.2c0.2-1.1-0.2-2.2,0.5-3.1c0.1-1,0.8-1.8,1.4-2.5
		c0.6-0.8,1.3-1.6,2.4-2c0.3,0.9,0.5,1.7,0.8,2.5c0.4,1,0.3,2.1,0.2,3.1c-0.1,0.7-0.3,1.5-0.6,2.1c-0.5,0.9-1.1,1.8-1.9,2.4
		c-0.2,0.2-0.4,0.3-0.7,0.5c0.5,1.5,1.8,2.4,2.7,3.8c0-0.3,0.1-0.5,0-0.7c0-0.1-0.2-0.2-0.2-0.4c-0.1-0.5-0.3-1.1-0.2-1.7
		c0.1-1.3,0.4-2.6,1.1-3.8c0.4-0.7,0.8-1.2,1.4-1.8c0.9,0.6,1.2,1.5,1.7,2.4s0.8,1.9,0.9,2.9s-0.1,2-0.4,3c-0.3,0.9-0.8,1.8-1.5,2.6
		c1,0.8,2.1,1.7,3.2,2.5c0.2-0.4,0.2-0.5,0-0.8c-0.5-1.1-0.9-2.2-0.8-3.4c0.2-1.5,0.4-2.9,1.1-4.2c1.8,1.3,3.4,2.8,4,5
		c0.1,0.2,0.1,0.4,0.1,0.6c0,0.5,0,1.1,0,1.6c0.1,1-0.2,1.9-0.5,2.8c-0.1,0.2-0.1,0.3-0.1,0.6c1.1,0.7,2.3,1,3.4,1.5
		c0.2,0.1,0.5,0,0.8,0c-0.5-0.6-1-1.2-1.5-1.8c-0.4-0.5-0.8-1.1-0.7-1.9c0-0.1,0-0.3-0.1-0.4c-0.5-0.9-0.4-1.8-0.4-2.7
		c0-0.4,0.1-1,0.6-1.3c0.8,0.2,1.6,0.7,2.3,1c0.9,0.5,1.5,1.2,2.2,1.9c0.6,0.6,0.8,1.5,1.1,2.3c0.1,0.2,0.2,0.4,0.2,0.7
		c0,0.3,0,0.6,0,0.9c0,0.8,0,1.7,0,2.5c2.2,0.4,4.3,0.7,6.6,0.6c0,0.2,0,0.4,0,0.5c0,0.2,0,0.3,0,0.5c-2.4,0.2-4.7,0-6.9-0.5
		c-0.5,1.3-1.3,2.4-2.2,3.4c-0.8,0.8-1.8,1.3-2.8,1.7c-0.5,0.2-3.4,0.4-3.8,0.3c-0.2,0-0.3-0.2-0.5-0.2c-0.1,0-0.3,0-0.4,0
		c0.5-2.7,2.9-5.6,6-6.1c-0.8-0.1-1.5-0.6-2.3-0.8c-0.8-0.2-1.5-0.7-2.3-1.1c-0.5,0.5-1,1-1.5,1.5c-0.9,0.9-2,1.4-3.1,1.9
		c-0.9-0.2-1.7,0.6-2.6,0.1c-1.2,0-2.4-0.4-3.5-0.9c0-0.1,0-0.3,0-0.4c0.4-0.5,0.6-1,1-1.4c1.2-1.1,2.4-2.1,4.1-2.5
		c0.7-0.1,1.3-0.1,2-0.3c-1.3-1-2.5-1.9-3.8-3c-1,0.7-2.1,1.5-3.4,1.8c-2.2,0.5-2.6,0.3-4,0c-1.3-0.3-2.4-1.2-3.5-1.9
		c0-0.2,0-0.3,0-0.5c0.8-0.5,1.6-1.2,2.5-1.6c0.8-0.4,1.8-0.7,2.8-0.8c1-0.1,2,0.1,3,0.3c-1-1.2-1.9-2.5-3-3.8c-0.2,0-0.5,0-0.8,0.1
		c-1.4,0.7-3,0.7-4.5,0.6c-1-0.1-1.9-0.5-2.7-1.1s-1.6-1.1-2.1-2c-0.1-0.2-0.4-0.4-0.6-0.6c0.2-0.8,1-0.8,1.4-0.9
		c1.3-0.5,2.6-0.7,4-0.5c0.9,0.1,1.8,0.2,2.6,0.9C12.4,65.5,12.7,65.4,12.9,65.4z"/>
	<path class="st6" d="M87.9,64.1c0.2,0,0.5,0,0.6-0.1c1-0.8,2.1-1,3.3-1.1c1.4-0.1,2.8,0.2,4.1,0.8c0.2,0.1,0.3,0.2,0.5,0.3
		c-0.9,1.5-2,2.6-3.5,3.4c-0.8,0.4-1.6,0.8-2.6,0.7c-0.3,0-0.6,0-0.9,0c-1,0.1-1.9-0.2-2.9-0.5c-0.3-0.1-0.5-0.1-0.8-0.2
		c-1,1.4-1.9,2.7-2.9,4c0.2,0,0.4,0,0.6-0.1c1.1-0.4,2.1-0.4,3.4-0.2c0.8,0.1,1.5,0.4,2.1,0.7c0.6,0.3,1,0.7,1.6,1
		c0.2,0.1,0.4,0.3,0.6,0.4c0,0.1,0,0.3,0,0.4c-4,3.2-7.2,3-10.9,0.5c-1.2,1-2.4,2-3.7,3.1c3.2-0.1,5.5,1.4,7.3,3.8c0,0,0,0.2,0,0.4
		c-0.1,0-0.2,0-0.3,0.1c-0.9,0.5-2,0.8-2.9,0.9c-0.3,0-0.7,0.2-1,0.2c-0.8-0.1-1.7-0.1-2.4-0.4c-0.9-0.4-1.8-0.8-2.5-1.5
		c-0.5-0.5-0.9-0.9-1.4-1.4c-1.5,0.7-3.1,1.3-4.6,2c1.5,0.3,3,0.9,4.1,2.1c0.9,1.1,1.9,2.2,2.1,3.7c-1.1,0.6-2.3,0.3-3.5,0.4
		c-0.4-0.4-0.9-0.1-1.3-0.3c-0.4-0.2-0.8-0.3-1.1-0.5c-0.8-0.4-1.5-0.9-2.1-1.6c-0.7-0.9-1.3-1.9-2-2.8c-1,0.4-2.1,0.5-3.3,0.6
		c-1.1,0.1-2.3,0.2-3.5,0.2c0-0.4,0-0.7,0-1.1c0.4,0,0.8,0,1.3,0c1,0,1.9-0.4,2.9-0.3c0.7-0.4,1.6-0.1,2.4-0.7c0-0.5,0-1.2,0-1.9
		c-0.1-1.2,0.3-2.3,0.7-3.4c0.4-1.1,1.2-1.8,1.9-2.6c0.2,0,0.4,0,0.5-0.1c0.4-0.7,1.3-0.8,1.9-1.2c0.3-0.2,0.7-0.2,1,0.3
		c0,1,0.2,2.2,0,3.3c-0.2,1.4-0.6,2.7-1.7,3.8c-0.2,0.2-0.3,0.4-0.5,0.7c0.2,0,0.4,0.1,0.5,0.1c1.2-0.5,2.5-1,3.6-1.6
		c-0.1-0.8-0.5-1.3-0.5-2.1c-0.3-0.2-0.2-0.5-0.2-0.8c0-0.6,0-1.2,0-1.8c-0.1-0.8,0.2-1.4,0.5-2.1c0.6-1.6,1.9-2.6,3-3.7
		c0.1-0.1,0.4-0.2,0.6-0.3c0.4,1,1,2,1,3.2c0,0.4,0.2,0.7,0.2,1.1c0.1,1.2-0.3,2.3-0.7,3.3c-0.1,0.1-0.1,0.3-0.1,0.4s0,0.2,0.1,0.4
		c1.2-0.8,2.2-1.6,3.1-2.6c-1.5-1.9-2.2-4-2.1-6.4c0.6-1.6,1.1-3.2,2.3-4.5c0.9,0.7,1.4,1.5,1.9,2.4c0.4,0.8,0.7,1.8,0.9,2.7
		c0.2,1-0.3,2-0.3,3c0.9-1.3,2.1-2.3,2.6-3.8c-1.3-0.8-2.1-1.9-2.8-3.1c-0.8-1.3-0.6-2.8-0.7-4.2c0.5-1,0.3-2.2,1.2-3.1
		c2.6,1.8,4.3,3.9,4.3,7.2c0.5-1.3,1-2.7,1.6-4.1c-0.2-0.1-0.4-0.2-0.6-0.3c-1-0.5-1.9-1.2-2.7-2c-0.8-0.8-1.4-1.7-1.7-2.8
		c-0.2-0.6-0.4-1.3-0.4-1.9c0.1-0.6-0.2-1.3,0.2-1.9c0.1-0.2,0-0.6,0-1c1.8,0.7,3.5,1.5,4.7,3c0.6,0.7,1.3,2.1,1.4,3
		c0.4-0.8,0.3-0.8,0.4-1.4c0-0.5,0.1-1,0.2-1.6c0-0.5,0-1,0-1.6c-1.5-0.1-3-0.6-4.2-1.5c-1.2-0.8-2.1-1.9-2.6-3.3
		c-0.4-1-0.7-2.1-0.6-3.3c0.6,0.1,1.2,0.1,1.7,0.2c0.8,0.3,1.6,0.3,2.4,0.8c1.3,0.8,2.4,1.7,3.2,3.1c0.2-1.5-0.3-2.9-0.5-4.4
		c-0.6,0.1-1.2,0.2-1.8,0.2c-0.6,0-1.1-0.1-1.7-0.2c-0.6-0.1-1.1-0.2-1.6-0.6c-0.5-0.3-1-0.4-1.4-0.8c-0.5-0.4-0.9-0.8-1.2-1.3
		c-0.3-0.5-0.6-0.9-0.8-1.4c-0.3-0.5-0.5-1-0.8-1.6c1.5-0.5,2.9-0.5,4.4-0.2c1.4,0.3,2.3,0.8,3.7,2c0-0.3,0-0.5-0.1-0.7
		c-0.2-0.5-0.5-1-0.7-1.6c-0.2-0.5-0.4-1-0.7-1.5c-0.4-0.1-0.9,0-1.3,0.2c-1.1,0.4-2.3,0.6-3.5,0.5s-2.2-0.7-3.2-1.3
		s-1.8-1.5-2.5-2.5c0-0.1,0-0.2,0-0.4c0.6-0.2,1.2-0.5,1.8-0.8c0.7-0.3,1.5,0,2.1-0.3c0.7-0.4,1.3,0.1,1.9,0.1s1.2,0.4,1.9,0.6
		c0-0.2,0-0.4,0-0.6c-0.7-0.8-1.4-1.7-2.1-2.5c-2.1,1.6-4.1,2.3-6.5,1.9c-1.6-0.3-3.2-1-4.4-2.3c0.9-1.1,2.1-1.7,3.4-2.2
		c0.5-0.3,2.7-0.3,3.7,0c-0.1-0.2-0.1-0.4-0.2-0.5c-0.4-0.3-0.9-0.6-1.3-0.9c-0.6-0.4-1.2-0.9-1.8-1.3c-0.5,0.5-0.9,0.9-1.3,1.4
		c-0.9,1-2.1,1.5-3.2,2c-0.2,0.1-0.4,0-0.5,0.1c-0.4,0-0.8,0-1.2,0c-1.6,0.2-2.9-0.4-4.3-0.9c0.6-2,3.2-4.3,7-4.5
		c-1.3-0.7-2.7-1.2-4.1-1.6c-0.8-0.2-0.8-0.2-1.8,0c-0.8,0.1-1.6,0.2-2.3-0.1c-0.4-0.2-0.9-0.1-1.3-0.2c-0.8-0.3-1.5-0.6-2.1-1.1
		c-1.2-1-2.3-2.2-2.8-3.7c1.4-0.7,2.9-0.8,4.3-0.6c1.5,0.2,2.8,0.8,3.9,1.9c0.8,0.7,1.3,1.6,2,2.6c0.8,0.3,1.7,0.5,2.6,0.9
		c0.8,0.3,1.7,0.7,2.5,1.1c0-0.2,0.1-0.3,0.1-0.3c-0.6-0.7-0.9-1.6-1.2-2.5c-0.3-0.9-0.3-1.8-0.2-2.6c0.1-1,0.4-2,0.9-2.9
		c0.1-0.1,0.1-0.3,0.2-0.5c0.4,0.3,0.7,0.5,1,0.8c0.4,0.4,0.8,0.8,1.2,1.1c1,0.8,1.4,2,1.9,3.2c0.1,0.3,0,0.6,0,0.9
		c0.1,1.4,0.1,2.9-0.6,4.2c-0.1,0.2,0,0.4,0,0.6c1.4,1,2.7,2,4,2.9c-0.1-0.4-0.1-0.9-0.3-1.3c-0.5-1.5-0.2-3.2,0.5-4.6
		c0.4-1,0.9-1.9,1.7-2.6c1.6,1.4,2.4,3.2,2.6,5.3c0.2,2.2-0.7,4-2,5.7c1,1.4,2.1,2.6,3.3,4.2c-0.1-1.3,0-2.2,0.2-3.1
		c0.7-2.2,2.1-3.7,3.9-5c0.6,1.1,1,2.1,1.1,3.3c0,0.3,0.2,0.6,0.2,0.9c0.1,0.8-0.2,1.5-0.3,2.3c-0.2,0.9-0.7,1.6-1.2,2.4
		c-0.5,0.9-1.3,1.5-2.1,2.2c0.9,1.6,1.6,3.2,2.2,4.9c0.3-0.4-0.1-1,0.3-1.3c-0.1-0.9,0.4-1.6,0.9-2.1c1.1-1.4,2.3-2.6,4.2-3.1
		c0.1,0,0.1-0.2,0.2-0.2s0.1,0,0.2,0c0.1,0.2,0.2,0.4,0.3,0.6c0,0.8,0.1,1.7,0,2.6c-0.2,1.5-0.6,2.9-1.7,4.1c-0.9,1-2,1.7-3.2,2.3
		c-0.1,0.1-0.2,0.1-0.4,0.2c-0.1,0-0.1,0.1-0.1,0.1c0.1,0.5,0,0.9,0.2,1.3c0.2,0.4,0.2,0.9,0.2,1.3c0.1,0.4,0.2,0.8,0.2,1.2
		s0,0.9,0,1.5c0.3-0.6,0.5-1.1,0.8-1.5c1-1.7,2.5-2.5,4.3-3.1c0.4-0.1,0.8-0.2,1.2-0.2c0.4,0,0.8-0.2,1.3-0.3
		c-0.1,1.5-0.4,2.8-0.9,4c-0.2,1.2-1.1,2.2-2.3,3c-1.2,0.7-2.5,1.2-3.8,1.2c-0.2,1.8-0.4,3.5-0.7,5.3c0.4-0.4,0.8-0.8,1.1-1.1
		c1-1,2.2-1.5,3.6-1.7c0.5-0.1,0.9-0.2,1.4-0.3c0.8-0.1,1.5,0.4,2.4,0.2C98.4,54.8,98,56,97,57c-0.3,0.3-0.5,0.5-0.8,0.8
		c-0.8,0.9-2,1.3-3.1,1.7c-1.2,0.4-2.5,0.1-3.8,0.3c-0.3,1.3-0.8,2.5-1.4,3.7C87.9,63.7,87.9,63.9,87.9,64.1z"/>
</g>
</svg>
